<?xml version="1.0" encoding="UTF-8" standalone="no"?>
<!-- Created with Inkscape (http://www.inkscape.org/) -->

<svg
   width="141.11862"
   height="125.90347"
   viewBox="0 0 37.337636 33.311959"
   version="1.1"
   id="svg1"
   xml:space="preserve"
   sodipodi:docname="Logo03.svg"
   inkscape:export-filename="../Images/Logo_128.png"
   inkscape:export-xdpi="87.075684"
   inkscape:export-ydpi="87.075684"
   inkscape:version="1.4.3 (0d15f75042, 2025-12-25)"
   xmlns:inkscape="http://www.inkscape.org/namespaces/inkscape"
   xmlns:sodipodi="http://sodipodi.sourceforge.net/DTD/sodipodi-0.dtd"
   xmlns="http://www.w3.org/2000/svg"
   xmlns:svg="http://www.w3.org/2000/svg"><sodipodi:namedview
     id="namedview1"
     pagecolor="#505050"
     bordercolor="#eeeeee"
     borderopacity="1"
     inkscape:showpageshadow="0"
     inkscape:pageopacity="0"
     inkscape:pagecheckerboard="0"
     inkscape:deskcolor="#505050"
     inkscape:zoom="0.47059863"
     inkscape:cx="224.18255"
     inkscape:cy="-129.62214"
     inkscape:window-width="1366"
     inkscape:window-height="697"
     inkscape:window-x="0"
     inkscape:window-y="0"
     inkscape:window-maximized="1"
     inkscape:current-layer="svg1"><inkscape:page
       x="0"
       y="0"
       width="37.337635"
       height="33.311958"
       id="page2"
       margin="0"
       bleed="0" /></sodipodi:namedview><defs
     id="defs1"><filter
       style="color-interpolation-filters:sRGB"
       id="filter49"
       x="-0.037662941"
       y="-0.048139134"
       width="1.0805568"
       height="1.1096502"><feFlood
         result="flood"
         in="SourceGraphic"
         flood-opacity="0.498039"
         flood-color="rgb(0,0,0)"
         id="feFlood48" /><feGaussianBlur
         result="blur"
         in="SourceGraphic"
         stdDeviation="0.600000"
         id="feGaussianBlur48" /><feOffset
         result="offset"
         in="blur"
         dx="0.200000"
         dy="0.400000"
         id="feOffset48" /><feComposite
         result="comp1"
         operator="in"
         in="flood"
         in2="offset"
         id="feComposite48" /><feComposite
         result="comp2"
         operator="over"
         in="SourceGraphic"
         in2="comp1"
         id="feComposite49" /></filter><filter
       style="color-interpolation-filters:sRGB"
       id="filter53"
       x="-0.03996176"
       y="-0.044166666"
       width="1.0854738"
       height="1.1006019"><feFlood
         result="flood"
         in="SourceGraphic"
         flood-opacity="0.498039"
         flood-color="rgb(0,0,0)"
         id="feFlood52" /><feGaussianBlur
         result="blur"
         in="SourceGraphic"
         stdDeviation="0.600000"
         id="feGaussianBlur52" /><feOffset
         result="offset"
         in="blur"
         dx="0.200000"
         dy="0.400000"
         id="feOffset52" /><feComposite
         result="comp1"
         operator="in"
         in="flood"
         in2="offset"
         id="feComposite52" /><feComposite
         result="comp2"
         operator="over"
         in="SourceGraphic"
         in2="comp1"
         id="feComposite53" /></filter><filter
       style="color-interpolation-filters:sRGB"
       id="filter98"
       x="-0.10153641"
       y="-0.14262414"
       width="1.2108365"
       height="1.2714183"><feFlood
         result="flood"
         in="SourceGraphic"
         flood-opacity="0.498039"
         flood-color="rgb(0,0,0)"
         id="feFlood97" /><feGaussianBlur
         result="blur"
         in="SourceGraphic"
         stdDeviation="0.600000"
         id="feGaussianBlur97" /><feOffset
         result="offset"
         in="blur"
         dx="0.200000"
         dy="-0.200000"
         id="feOffset97" /><feComposite
         result="comp1"
         operator="in"
         in="flood"
         in2="offset"
         id="feComposite97" /><feComposite
         result="comp2"
         operator="over"
         in="SourceGraphic"
         in2="comp1"
         id="feComposite98" /></filter></defs><g
     id="layer1"
     transform="matrix(0.88531713,0,0,0.88531713,3.6406745,1.3566171)"><ellipse
       style="display:inline;fill:#e7bdb9;fill-opacity:1;stroke-width:11.5986;stroke-linecap:round;stroke-linejoin:round;filter:url(#filter53)"
       id="path1"
       cx="21.903587"
       cy="12.244664"
       rx="18.017225"
       ry="16.301888"
       transform="matrix(0.83024992,0.18686074,-0.18686074,0.83024992,2.5289478,2.5745887)" /><ellipse
       style="display:inline;fill:#ffb3ae;fill-opacity:1;stroke:none;stroke-width:16;stroke-linecap:round;stroke-linejoin:round;stroke-opacity:1;filter:url(#filter49)"
       id="path3"
       transform="matrix(0.81944984,0.22963849,-0.22963849,0.81944984,1.6512722,3.2014999)"
       ry="14.956647"
       rx="19.116936"
       cy="11.514193"
       cx="21.457178" /><path
       id="path53"
       style="fill:none;stroke:#ffffff;stroke-width:2.35134;stroke-linecap:round;stroke-linejoin:round;stroke-dasharray:none;filter:url(#filter98)"
       d="m 28.196132,16.290507 c 0,2.136536 -0.371303,4.601104 -2.108951,6.155664 5.183982,11.496746 -1.438375,2.729759 -7.444789,2.789125 -1.472473,-0.0056 -1.715218,0.175942 -3.326714,0.175942 -7.1136782,0 -12.8804534,-4.083491 -12.8804534,-9.120731 -4e-7,-5.03724 5.766775,-9.1207317 12.8804534,-9.1207321 7.113679,0 12.880454,4.0834901 12.880454,9.1207321 z"
       transform="matrix(0.85101814,0,0,0.85101814,2.5289478,2.5745887)" /><path
       d="m 77.436318,-42.961293 q -0.440001,0 -0.865335,-0.07333 -0.425335,-0.07333 -0.821336,-0.264001 -0.381334,-0.190667 -0.704001,-0.498668 -0.308001,-0.293334 -0.513335,-0.689335 -0.190667,-0.381334 -0.278667,-0.806668 -0.07333,-0.425334 -0.07333,-0.850669 v -1.408003 q 0,-0.278667 -0.044,-0.542668 -0.044,-0.278667 -0.161333,-0.528001 -0.117334,-0.264001 -0.322668,-0.469334 -0.190667,-0.205334 -0.440001,-0.322668 -0.234667,-0.132 -0.513334,-0.176 -0.278668,-0.05867 -0.557335,-0.05867 v -1.085336 q 0.278667,0 0.557335,-0.044 0.278667,-0.05867 0.513334,-0.176 0.249334,-0.132001 0.440001,-0.337335 0.205334,-0.205333 0.322668,-0.454667 0.117333,-0.264001 0.161333,-0.528001 0.044,-0.278668 0.044,-0.557335 v -1.408003 q 0,-0.425335 0.07333,-0.850669 0.088,-0.425334 0.278667,-0.806668 0.205334,-0.396001 0.513335,-0.689335 0.322667,-0.308001 0.704001,-0.498668 0.396001,-0.190667 0.821336,-0.264001 0.425334,-0.07333 0.865335,-0.07333 v 1.085336 q -0.278667,0 -0.557335,0.05867 -0.278667,0.044 -0.528001,0.176001 -0.234667,0.132 -0.440001,0.337334 -0.190667,0.205334 -0.308001,0.454668 -0.117333,0.249333 -0.161333,0.528001 -0.044,0.264 -0.044,0.542668 v 1.408003 q 0,0.381334 -0.05867,0.762668 -0.05867,0.366668 -0.220001,0.718669 -0.146667,0.352 -0.396001,0.645334 -0.234667,0.293334 -0.542668,0.513335 0.308001,0.22 0.542668,0.513334 0.249334,0.293334 0.396001,0.645335 0.161334,0.352001 0.220001,0.733335 0.05867,0.366668 0.05867,0.748002 v 1.408003 q 0,0.278668 0.044,0.557335 0.044,0.264 0.161333,0.513334 0.117334,0.249334 0.308001,0.454668 0.205334,0.205334 0.440001,0.337334 0.249334,0.132001 0.528001,0.176001 0.278668,0.05867 0.557335,0.05867 z m 5.705352,-6.057347 v -6.966683 h 1.20267 v 6.966683 z m 0.601335,3.930676 q -0.205334,0 -0.410668,-0.05867 -0.205334,-0.05867 -0.352001,-0.205334 -0.146667,-0.161334 -0.22,-0.352001 -0.05867,-0.205334 -0.05867,-0.425334 0,-0.205334 0.05867,-0.396001 0.07333,-0.205334 0.22,-0.352001 0.146667,-0.161333 0.352001,-0.22 0.205334,-0.05867 0.410668,-0.05867 0.205334,0 0.410667,0.05867 0.205334,0.05867 0.352001,0.22 0.146667,0.146667 0.205334,0.352001 0.05867,0.190667 0.05867,0.396001 0,0.22 -0.05867,0.425334 -0.05867,0.190667 -0.205334,0.352001 -0.146667,0.146667 -0.352001,0.205334 -0.205333,0.05867 -0.410667,0.05867 z m 6.306687,2.126671 v -1.085336 q 0.278667,0 0.557334,-0.05867 0.278668,-0.044 0.513335,-0.176001 0.249334,-0.132 0.440001,-0.337334 0.205334,-0.205334 0.322667,-0.454668 0.117334,-0.249334 0.161334,-0.513334 0.044,-0.278667 0.044,-0.557335 v -1.408003 q 0,-0.381334 0.05867,-0.748002 0.05867,-0.381334 0.205334,-0.733335 0.161333,-0.352001 0.396001,-0.645335 0.249333,-0.293334 0.557334,-0.513334 -0.308001,-0.220001 -0.557334,-0.513335 -0.234668,-0.293334 -0.396001,-0.645334 -0.146667,-0.352001 -0.205334,-0.718669 -0.05867,-0.381334 -0.05867,-0.762668 v -1.408003 q 0,-0.278668 -0.044,-0.542668 -0.044,-0.278668 -0.161334,-0.528001 -0.117333,-0.249334 -0.322667,-0.454668 -0.190667,-0.205334 -0.440001,-0.337334 -0.234667,-0.132001 -0.513335,-0.176001 -0.278667,-0.05867 -0.557334,-0.05867 v -1.085336 q 0.440001,0 0.865335,0.07333 0.425334,0.07333 0.806669,0.264001 0.396,0.190667 0.704001,0.498668 0.322668,0.293334 0.513335,0.689335 0.205333,0.381334 0.278667,0.806668 0.088,0.425334 0.088,0.850669 v 1.408003 q 0,0.278667 0.044,0.557335 0.044,0.264 0.161334,0.528001 0.117334,0.249334 0.308001,0.454667 0.205333,0.205334 0.440001,0.337335 0.249334,0.117333 0.528001,0.176 0.278667,0.044 0.557335,0.044 v 1.085336 q -0.278668,0 -0.557335,0.05867 -0.278667,0.044 -0.528001,0.176 -0.234668,0.117334 -0.440001,0.322668 -0.190667,0.205333 -0.308001,0.469334 -0.117334,0.249334 -0.161334,0.528001 -0.044,0.264001 -0.044,0.542668 v 1.408003 q 0,0.425335 -0.088,0.850669 -0.07333,0.425334 -0.278667,0.806668 -0.190667,0.396001 -0.513335,0.689335 -0.308001,0.308001 -0.704001,0.498668 -0.381335,0.190667 -0.806669,0.264001 -0.425334,0.07333 -0.865335,0.07333 z"
       id="text54"
       style="font-size:14.6667px;font-family:'Adwaita Mono';-inkscape-font-specification:'Adwaita Mono';white-space:pre;fill:#ffffff;stroke:#ffffff;stroke-width:0.845082;stroke-linecap:round;stroke-linejoin:round;filter:url(#filter98)"
       transform="matrix(0.59196231,0,0,0.59196231,-33.765199,46.3309)"
       aria-label="{!}" /></g><g
     id="g16"
     transform="matrix(3.2120661,0,0,3.2120661,120.03208,-141.87384)"
     inkscape:export-filename="../Images/Logo_Splash_07.png"
     inkscape:export-xdpi="87.075684"
     inkscape:export-ydpi="87.075684"><ellipse
       style="display:inline;fill:#e7bdb9;fill-opacity:1;stroke-width:11.5986;stroke-linecap:round;stroke-linejoin:round;filter:url(#filter53)"
       id="ellipse14"
       cx="21.903587"
       cy="12.244664"
       rx="18.017225"
       ry="16.301888"
       transform="matrix(0.83024992,0.18686074,-0.18686074,0.83024992,2.5289478,2.5745887)" /><ellipse
       style="display:inline;fill:#ffb3ae;fill-opacity:1;stroke:none;stroke-width:16;stroke-linecap:round;stroke-linejoin:round;stroke-opacity:1;filter:url(#filter49)"
       id="ellipse15"
       transform="matrix(0.81944984,0.22963849,-0.22963849,0.81944984,1.6512722,3.2014999)"
       ry="14.956647"
       rx="19.116936"
       cy="11.514193"
       cx="21.457178" /><path
       id="path15"
       style="fill:none;stroke:#ffffff;stroke-width:2.35134;stroke-linecap:round;stroke-linejoin:round;stroke-dasharray:none;filter:url(#filter98)"
       d="m 28.196132,16.290507 c 0,2.136536 -0.371303,4.601104 -2.108951,6.155664 5.183982,11.496746 -1.438375,2.729759 -7.444789,2.789125 -1.472473,-0.0056 -1.715218,0.175942 -3.326714,0.175942 -7.1136782,0 -12.8804534,-4.083491 -12.8804534,-9.120731 -4e-7,-5.03724 5.766775,-9.1207317 12.8804534,-9.1207321 7.113679,0 12.880454,4.0834901 12.880454,9.1207321 z"
       transform="matrix(0.85101814,0,0,0.85101814,2.5289478,2.5745887)" /><path
       d="m 77.436318,-42.961293 q -0.440001,0 -0.865335,-0.07333 -0.425335,-0.07333 -0.821336,-0.264001 -0.381334,-0.190667 -0.704001,-0.498668 -0.308001,-0.293334 -0.513335,-0.689335 -0.190667,-0.381334 -0.278667,-0.806668 -0.07333,-0.425334 -0.07333,-0.850669 v -1.408003 q 0,-0.278667 -0.044,-0.542668 -0.044,-0.278667 -0.161333,-0.528001 -0.117334,-0.264001 -0.322668,-0.469334 -0.190667,-0.205334 -0.440001,-0.322668 -0.234667,-0.132 -0.513334,-0.176 -0.278668,-0.05867 -0.557335,-0.05867 v -1.085336 q 0.278667,0 0.557335,-0.044 0.278667,-0.05867 0.513334,-0.176 0.249334,-0.132001 0.440001,-0.337335 0.205334,-0.205333 0.322668,-0.454667 0.117333,-0.264001 0.161333,-0.528001 0.044,-0.278668 0.044,-0.557335 v -1.408003 q 0,-0.425335 0.07333,-0.850669 0.088,-0.425334 0.278667,-0.806668 0.205334,-0.396001 0.513335,-0.689335 0.322667,-0.308001 0.704001,-0.498668 0.396001,-0.190667 0.821336,-0.264001 0.425334,-0.07333 0.865335,-0.07333 v 1.085336 q -0.278667,0 -0.557335,0.05867 -0.278667,0.044 -0.528001,0.176001 -0.234667,0.132 -0.440001,0.337334 -0.190667,0.205334 -0.308001,0.454668 -0.117333,0.249333 -0.161333,0.528001 -0.044,0.264 -0.044,0.542668 v 1.408003 q 0,0.381334 -0.05867,0.762668 -0.05867,0.366668 -0.220001,0.718669 -0.146667,0.352 -0.396001,0.645334 -0.234667,0.293334 -0.542668,0.513335 0.308001,0.22 0.542668,0.513334 0.249334,0.293334 0.396001,0.645335 0.161334,0.352001 0.220001,0.733335 0.05867,0.366668 0.05867,0.748002 v 1.408003 q 0,0.278668 0.044,0.557335 0.044,0.264 0.161333,0.513334 0.117334,0.249334 0.308001,0.454668 0.205334,0.205334 0.440001,0.337334 0.249334,0.132001 0.528001,0.176001 0.278668,0.05867 0.557335,0.05867 z m 5.705352,-6.057347 v -6.966683 h 1.20267 v 6.966683 z m 0.601335,3.930676 q -0.205334,0 -0.410668,-0.05867 -0.205334,-0.05867 -0.352001,-0.205334 -0.146667,-0.161334 -0.22,-0.352001 -0.05867,-0.205334 -0.05867,-0.425334 0,-0.205334 0.05867,-0.396001 0.07333,-0.205334 0.22,-0.352001 0.146667,-0.161333 0.352001,-0.22 0.205334,-0.05867 0.410668,-0.05867 0.205334,0 0.410667,0.05867 0.205334,0.05867 0.352001,0.22 0.146667,0.146667 0.205334,0.352001 0.05867,0.190667 0.05867,0.396001 0,0.22 -0.05867,0.425334 -0.05867,0.190667 -0.205334,0.352001 -0.146667,0.146667 -0.352001,0.205334 -0.205333,0.05867 -0.410667,0.05867 z m 6.306687,2.126671 v -1.085336 q 0.278667,0 0.557334,-0.05867 0.278668,-0.044 0.513335,-0.176001 0.249334,-0.132 0.440001,-0.337334 0.205334,-0.205334 0.322667,-0.454668 0.117334,-0.249334 0.161334,-0.513334 0.044,-0.278667 0.044,-0.557335 v -1.408003 q 0,-0.381334 0.05867,-0.748002 0.05867,-0.381334 0.205334,-0.733335 0.161333,-0.352001 0.396001,-0.645335 0.249333,-0.293334 0.557334,-0.513334 -0.308001,-0.220001 -0.557334,-0.513335 -0.234668,-0.293334 -0.396001,-0.645334 -0.146667,-0.352001 -0.205334,-0.718669 -0.05867,-0.381334 -0.05867,-0.762668 v -1.408003 q 0,-0.278668 -0.044,-0.542668 -0.044,-0.278668 -0.161334,-0.528001 -0.117333,-0.249334 -0.322667,-0.454668 -0.190667,-0.205334 -0.440001,-0.337334 -0.234667,-0.132001 -0.513335,-0.176001 -0.278667,-0.05867 -0.557334,-0.05867 v -1.085336 q 0.440001,0 0.865335,0.07333 0.425334,0.07333 0.806669,0.264001 0.396,0.190667 0.704001,0.498668 0.322668,0.293334 0.513335,0.689335 0.205333,0.381334 0.278667,0.806668 0.088,0.425334 0.088,0.850669 v 1.408003 q 0,0.278667 0.044,0.557335 0.044,0.264 0.161334,0.528001 0.117334,0.249334 0.308001,0.454667 0.205333,0.205334 0.440001,0.337335 0.249334,0.117333 0.528001,0.176 0.278667,0.044 0.557335,0.044 v 1.085336 q -0.278668,0 -0.557335,0.05867 -0.278667,0.044 -0.528001,0.176 -0.234668,0.117334 -0.440001,0.322668 -0.190667,0.205333 -0.308001,0.469334 -0.117334,0.249334 -0.161334,0.528001 -0.044,0.264001 -0.044,0.542668 v 1.408003 q 0,0.425335 -0.088,0.850669 -0.07333,0.425334 -0.278667,0.806668 -0.190667,0.396001 -0.513335,0.689335 -0.308001,0.308001 -0.704001,0.498668 -0.381335,0.190667 -0.806669,0.264001 -0.425334,0.07333 -0.865335,0.07333 z"
       id="path16"
       style="font-size:14.6667px;font-family:'Adwaita Mono';-inkscape-font-specification:'Adwaita Mono';white-space:pre;fill:#ffffff;stroke:#ffffff;stroke-width:0.845082;stroke-linecap:round;stroke-linejoin:round;filter:url(#filter98)"
       transform="matrix(0.59196231,0,0,0.59196231,-33.765199,46.3309)"
       aria-label="{!}" /></g><g
     id="g18"
     transform="matrix(1.6060331,0,0,1.6060331,47.084818,-84.466635)"><ellipse
       style="display:inline;fill:#e7bdb9;fill-opacity:1;stroke-width:11.5986;stroke-linecap:round;stroke-linejoin:round;filter:url(#filter53)"
       id="ellipse16"
       cx="21.903587"
       cy="12.244664"
       rx="18.017225"
       ry="16.301888"
       transform="matrix(0.83024992,0.18686074,-0.18686074,0.83024992,2.5289478,2.5745887)" /><ellipse
       style="display:inline;fill:#ffb3ae;fill-opacity:1;stroke:none;stroke-width:16;stroke-linecap:round;stroke-linejoin:round;stroke-opacity:1;filter:url(#filter49)"
       id="ellipse17"
       transform="matrix(0.81944984,0.22963849,-0.22963849,0.81944984,1.6512722,3.2014999)"
       ry="14.956647"
       rx="19.116936"
       cy="11.514193"
       cx="21.457178" /><path
       id="path17"
       style="fill:none;stroke:#ffffff;stroke-width:2.35134;stroke-linecap:round;stroke-linejoin:round;stroke-dasharray:none;filter:url(#filter98)"
       d="m 28.196132,16.290507 c 0,2.136536 -0.371303,4.601104 -2.108951,6.155664 5.183982,11.496746 -1.438375,2.729759 -7.444789,2.789125 -1.472473,-0.0056 -1.715218,0.175942 -3.326714,0.175942 -7.1136782,0 -12.8804534,-4.083491 -12.8804534,-9.120731 -4e-7,-5.03724 5.766775,-9.1207317 12.8804534,-9.1207321 7.113679,0 12.880454,4.0834901 12.880454,9.1207321 z"
       transform="matrix(0.85101814,0,0,0.85101814,2.5289478,2.5745887)" /><path
       d="m 77.436318,-42.961293 q -0.440001,0 -0.865335,-0.07333 -0.425335,-0.07333 -0.821336,-0.264001 -0.381334,-0.190667 -0.704001,-0.498668 -0.308001,-0.293334 -0.513335,-0.689335 -0.190667,-0.381334 -0.278667,-0.806668 -0.07333,-0.425334 -0.07333,-0.850669 v -1.408003 q 0,-0.278667 -0.044,-0.542668 -0.044,-0.278667 -0.161333,-0.528001 -0.117334,-0.264001 -0.322668,-0.469334 -0.190667,-0.205334 -0.440001,-0.322668 -0.234667,-0.132 -0.513334,-0.176 -0.278668,-0.05867 -0.557335,-0.05867 v -1.085336 q 0.278667,0 0.557335,-0.044 0.278667,-0.05867 0.513334,-0.176 0.249334,-0.132001 0.440001,-0.337335 0.205334,-0.205333 0.322668,-0.454667 0.117333,-0.264001 0.161333,-0.528001 0.044,-0.278668 0.044,-0.557335 v -1.408003 q 0,-0.425335 0.07333,-0.850669 0.088,-0.425334 0.278667,-0.806668 0.205334,-0.396001 0.513335,-0.689335 0.322667,-0.308001 0.704001,-0.498668 0.396001,-0.190667 0.821336,-0.264001 0.425334,-0.07333 0.865335,-0.07333 v 1.085336 q -0.278667,0 -0.557335,0.05867 -0.278667,0.044 -0.528001,0.176001 -0.234667,0.132 -0.440001,0.337334 -0.190667,0.205334 -0.308001,0.454668 -0.117333,0.249333 -0.161333,0.528001 -0.044,0.264 -0.044,0.542668 v 1.408003 q 0,0.381334 -0.05867,0.762668 -0.05867,0.366668 -0.220001,0.718669 -0.146667,0.352 -0.396001,0.645334 -0.234667,0.293334 -0.542668,0.513335 0.308001,0.22 0.542668,0.513334 0.249334,0.293334 0.396001,0.645335 0.161334,0.352001 0.220001,0.733335 0.05867,0.366668 0.05867,0.748002 v 1.408003 q 0,0.278668 0.044,0.557335 0.044,0.264 0.161333,0.513334 0.117334,0.249334 0.308001,0.454668 0.205334,0.205334 0.440001,0.337334 0.249334,0.132001 0.528001,0.176001 0.278668,0.05867 0.557335,0.05867 z m 5.705352,-6.057347 v -6.966683 h 1.20267 v 6.966683 z m 0.601335,3.930676 q -0.205334,0 -0.410668,-0.05867 -0.205334,-0.05867 -0.352001,-0.205334 -0.146667,-0.161334 -0.22,-0.352001 -0.05867,-0.205334 -0.05867,-0.425334 0,-0.205334 0.05867,-0.396001 0.07333,-0.205334 0.22,-0.352001 0.146667,-0.161333 0.352001,-0.22 0.205334,-0.05867 0.410668,-0.05867 0.205334,0 0.410667,0.05867 0.205334,0.05867 0.352001,0.22 0.146667,0.146667 0.205334,0.352001 0.05867,0.190667 0.05867,0.396001 0,0.22 -0.05867,0.425334 -0.05867,0.190667 -0.205334,0.352001 -0.146667,0.146667 -0.352001,0.205334 -0.205333,0.05867 -0.410667,0.05867 z m 6.306687,2.126671 v -1.085336 q 0.278667,0 0.557334,-0.05867 0.278668,-0.044 0.513335,-0.176001 0.249334,-0.132 0.440001,-0.337334 0.205334,-0.205334 0.322667,-0.454668 0.117334,-0.249334 0.161334,-0.513334 0.044,-0.278667 0.044,-0.557335 v -1.408003 q 0,-0.381334 0.05867,-0.748002 0.05867,-0.381334 0.205334,-0.733335 0.161333,-0.352001 0.396001,-0.645335 0.249333,-0.293334 0.557334,-0.513334 -0.308001,-0.220001 -0.557334,-0.513335 -0.234668,-0.293334 -0.396001,-0.645334 -0.146667,-0.352001 -0.205334,-0.718669 -0.05867,-0.381334 -0.05867,-0.762668 v -1.408003 q 0,-0.278668 -0.044,-0.542668 -0.044,-0.278668 -0.161334,-0.528001 -0.117333,-0.249334 -0.322667,-0.454668 -0.190667,-0.205334 -0.440001,-0.337334 -0.234667,-0.132001 -0.513335,-0.176001 -0.278667,-0.05867 -0.557334,-0.05867 v -1.085336 q 0.440001,0 0.865335,0.07333 0.425334,0.07333 0.806669,0.264001 0.396,0.190667 0.704001,0.498668 0.322668,0.293334 0.513335,0.689335 0.205333,0.381334 0.278667,0.806668 0.088,0.425334 0.088,0.850669 v 1.408003 q 0,0.278667 0.044,0.557335 0.044,0.264 0.161334,0.528001 0.117334,0.249334 0.308001,0.454667 0.205333,0.205334 0.440001,0.337335 0.249334,0.117333 0.528001,0.176 0.278667,0.044 0.557335,0.044 v 1.085336 q -0.278668,0 -0.557335,0.05867 -0.278667,0.044 -0.528001,0.176 -0.234668,0.117334 -0.440001,0.322668 -0.190667,0.205333 -0.308001,0.469334 -0.117334,0.249334 -0.161334,0.528001 -0.044,0.264001 -0.044,0.542668 v 1.408003 q 0,0.425335 -0.088,0.850669 -0.07333,0.425334 -0.278667,0.806668 -0.190667,0.396001 -0.513335,0.689335 -0.308001,0.308001 -0.704001,0.498668 -0.381335,0.190667 -0.806669,0.264001 -0.425334,0.07333 -0.865335,0.07333 z"
       id="path18"
       style="font-size:14.6667px;font-family:'Adwaita Mono';-inkscape-font-specification:'Adwaita Mono';white-space:pre;fill:#ffffff;stroke:#ffffff;stroke-width:0.845082;stroke-linecap:round;stroke-linejoin:round;filter:url(#filter98)"
       transform="matrix(0.59196231,0,0,0.59196231,-33.765199,46.3309)"
       aria-label="{!}" /></g><g
     id="g20"
     transform="matrix(0.80301653,0,0,0.80301653,8.9245024,-56.606372)"><ellipse
       style="display:inline;fill:#e7bdb9;fill-opacity:1;stroke-width:11.5986;stroke-linecap:round;stroke-linejoin:round;filter:url(#filter53)"
       id="ellipse18"
       cx="21.903587"
       cy="12.244664"
       rx="18.017225"
       ry="16.301888"
       transform="matrix(0.83024992,0.18686074,-0.18686074,0.83024992,2.5289478,2.5745887)" /><ellipse
       style="display:inline;fill:#ffb3ae;fill-opacity:1;stroke:none;stroke-width:16;stroke-linecap:round;stroke-linejoin:round;stroke-opacity:1;filter:url(#filter49)"
       id="ellipse19"
       transform="matrix(0.81944984,0.22963849,-0.22963849,0.81944984,1.6512722,3.2014999)"
       ry="14.956647"
       rx="19.116936"
       cy="11.514193"
       cx="21.457178" /><path
       id="path19"
       style="fill:none;stroke:#ffffff;stroke-width:2.35134;stroke-linecap:round;stroke-linejoin:round;stroke-dasharray:none;filter:url(#filter98)"
       d="m 28.196132,16.290507 c 0,2.136536 -0.371303,4.601104 -2.108951,6.155664 5.183982,11.496746 -1.438375,2.729759 -7.444789,2.789125 -1.472473,-0.0056 -1.715218,0.175942 -3.326714,0.175942 -7.1136782,0 -12.8804534,-4.083491 -12.8804534,-9.120731 -4e-7,-5.03724 5.766775,-9.1207317 12.8804534,-9.1207321 7.113679,0 12.880454,4.0834901 12.880454,9.1207321 z"
       transform="matrix(0.85101814,0,0,0.85101814,2.5289478,2.5745887)" /><path
       d="m 77.436318,-42.961293 q -0.440001,0 -0.865335,-0.07333 -0.425335,-0.07333 -0.821336,-0.264001 -0.381334,-0.190667 -0.704001,-0.498668 -0.308001,-0.293334 -0.513335,-0.689335 -0.190667,-0.381334 -0.278667,-0.806668 -0.07333,-0.425334 -0.07333,-0.850669 v -1.408003 q 0,-0.278667 -0.044,-0.542668 -0.044,-0.278667 -0.161333,-0.528001 -0.117334,-0.264001 -0.322668,-0.469334 -0.190667,-0.205334 -0.440001,-0.322668 -0.234667,-0.132 -0.513334,-0.176 -0.278668,-0.05867 -0.557335,-0.05867 v -1.085336 q 0.278667,0 0.557335,-0.044 0.278667,-0.05867 0.513334,-0.176 0.249334,-0.132001 0.440001,-0.337335 0.205334,-0.205333 0.322668,-0.454667 0.117333,-0.264001 0.161333,-0.528001 0.044,-0.278668 0.044,-0.557335 v -1.408003 q 0,-0.425335 0.07333,-0.850669 0.088,-0.425334 0.278667,-0.806668 0.205334,-0.396001 0.513335,-0.689335 0.322667,-0.308001 0.704001,-0.498668 0.396001,-0.190667 0.821336,-0.264001 0.425334,-0.07333 0.865335,-0.07333 v 1.085336 q -0.278667,0 -0.557335,0.05867 -0.278667,0.044 -0.528001,0.176001 -0.234667,0.132 -0.440001,0.337334 -0.190667,0.205334 -0.308001,0.454668 -0.117333,0.249333 -0.161333,0.528001 -0.044,0.264 -0.044,0.542668 v 1.408003 q 0,0.381334 -0.05867,0.762668 -0.05867,0.366668 -0.220001,0.718669 -0.146667,0.352 -0.396001,0.645334 -0.234667,0.293334 -0.542668,0.513335 0.308001,0.22 0.542668,0.513334 0.249334,0.293334 0.396001,0.645335 0.161334,0.352001 0.220001,0.733335 0.05867,0.366668 0.05867,0.748002 v 1.408003 q 0,0.278668 0.044,0.557335 0.044,0.264 0.161333,0.513334 0.117334,0.249334 0.308001,0.454668 0.205334,0.205334 0.440001,0.337334 0.249334,0.132001 0.528001,0.176001 0.278668,0.05867 0.557335,0.05867 z m 5.705352,-6.057347 v -6.966683 h 1.20267 v 6.966683 z m 0.601335,3.930676 q -0.205334,0 -0.410668,-0.05867 -0.205334,-0.05867 -0.352001,-0.205334 -0.146667,-0.161334 -0.22,-0.352001 -0.05867,-0.205334 -0.05867,-0.425334 0,-0.205334 0.05867,-0.396001 0.07333,-0.205334 0.22,-0.352001 0.146667,-0.161333 0.352001,-0.22 0.205334,-0.05867 0.410668,-0.05867 0.205334,0 0.410667,0.05867 0.205334,0.05867 0.352001,0.22 0.146667,0.146667 0.205334,0.352001 0.05867,0.190667 0.05867,0.396001 0,0.22 -0.05867,0.425334 -0.05867,0.190667 -0.205334,0.352001 -0.146667,0.146667 -0.352001,0.205334 -0.205333,0.05867 -0.410667,0.05867 z m 6.306687,2.126671 v -1.085336 q 0.278667,0 0.557334,-0.05867 0.278668,-0.044 0.513335,-0.176001 0.249334,-0.132 0.440001,-0.337334 0.205334,-0.205334 0.322667,-0.454668 0.117334,-0.249334 0.161334,-0.513334 0.044,-0.278667 0.044,-0.557335 v -1.408003 q 0,-0.381334 0.05867,-0.748002 0.05867,-0.381334 0.205334,-0.733335 0.161333,-0.352001 0.396001,-0.645335 0.249333,-0.293334 0.557334,-0.513334 -0.308001,-0.220001 -0.557334,-0.513335 -0.234668,-0.293334 -0.396001,-0.645334 -0.146667,-0.352001 -0.205334,-0.718669 -0.05867,-0.381334 -0.05867,-0.762668 v -1.408003 q 0,-0.278668 -0.044,-0.542668 -0.044,-0.278668 -0.161334,-0.528001 -0.117333,-0.249334 -0.322667,-0.454668 -0.190667,-0.205334 -0.440001,-0.337334 -0.234667,-0.132001 -0.513335,-0.176001 -0.278667,-0.05867 -0.557334,-0.05867 v -1.085336 q 0.440001,0 0.865335,0.07333 0.425334,0.07333 0.806669,0.264001 0.396,0.190667 0.704001,0.498668 0.322668,0.293334 0.513335,0.689335 0.205333,0.381334 0.278667,0.806668 0.088,0.425334 0.088,0.850669 v 1.408003 q 0,0.278667 0.044,0.557335 0.044,0.264 0.161334,0.528001 0.117334,0.249334 0.308001,0.454667 0.205333,0.205334 0.440001,0.337335 0.249334,0.117333 0.528001,0.176 0.278667,0.044 0.557335,0.044 v 1.085336 q -0.278668,0 -0.557335,0.05867 -0.278667,0.044 -0.528001,0.176 -0.234668,0.117334 -0.440001,0.322668 -0.190667,0.205333 -0.308001,0.469334 -0.117334,0.249334 -0.161334,0.528001 -0.044,0.264001 -0.044,0.542668 v 1.408003 q 0,0.425335 -0.088,0.850669 -0.07333,0.425334 -0.278667,0.806668 -0.190667,0.396001 -0.513335,0.689335 -0.308001,0.308001 -0.704001,0.498668 -0.381335,0.190667 -0.806669,0.264001 -0.425334,0.07333 -0.865335,0.07333 z"
       id="path20"
       style="font-size:14.6667px;font-family:'Adwaita Mono';-inkscape-font-specification:'Adwaita Mono';white-space:pre;fill:#ffffff;stroke:#ffffff;stroke-width:0.845082;stroke-linecap:round;stroke-linejoin:round;filter:url(#filter98)"
       transform="matrix(0.59196231,0,0,0.59196231,-33.765199,46.3309)"
       aria-label="{!}" /></g><g
     id="g22"
     transform="matrix(0.40150826,0,0,0.40150826,-20.837971,-40.989558)"><ellipse
       style="display:inline;fill:#e7bdb9;fill-opacity:1;stroke-width:11.5986;stroke-linecap:round;stroke-linejoin:round;filter:url(#filter53)"
       id="ellipse20"
       cx="21.903587"
       cy="12.244664"
       rx="18.017225"
       ry="16.301888"
       transform="matrix(0.83024992,0.18686074,-0.18686074,0.83024992,2.5289478,2.5745887)" /><ellipse
       style="display:inline;fill:#ffb3ae;fill-opacity:1;stroke:none;stroke-width:16;stroke-linecap:round;stroke-linejoin:round;stroke-opacity:1;filter:url(#filter49)"
       id="ellipse21"
       transform="matrix(0.81944984,0.22963849,-0.22963849,0.81944984,1.6512722,3.2014999)"
       ry="14.956647"
       rx="19.116936"
       cy="11.514193"
       cx="21.457178" /><path
       id="path21"
       style="fill:none;stroke:#ffffff;stroke-width:2.35134;stroke-linecap:round;stroke-linejoin:round;stroke-dasharray:none;filter:url(#filter98)"
       d="m 28.196132,16.290507 c 0,2.136536 -0.371303,4.601104 -2.108951,6.155664 5.183982,11.496746 -1.438375,2.729759 -7.444789,2.789125 -1.472473,-0.0056 -1.715218,0.175942 -3.326714,0.175942 -7.1136782,0 -12.8804534,-4.083491 -12.8804534,-9.120731 -4e-7,-5.03724 5.766775,-9.1207317 12.8804534,-9.1207321 7.113679,0 12.880454,4.0834901 12.880454,9.1207321 z"
       transform="matrix(0.85101814,0,0,0.85101814,2.5289478,2.5745887)" /><path
       d="m 77.436318,-42.961293 q -0.440001,0 -0.865335,-0.07333 -0.425335,-0.07333 -0.821336,-0.264001 -0.381334,-0.190667 -0.704001,-0.498668 -0.308001,-0.293334 -0.513335,-0.689335 -0.190667,-0.381334 -0.278667,-0.806668 -0.07333,-0.425334 -0.07333,-0.850669 v -1.408003 q 0,-0.278667 -0.044,-0.542668 -0.044,-0.278667 -0.161333,-0.528001 -0.117334,-0.264001 -0.322668,-0.469334 -0.190667,-0.205334 -0.440001,-0.322668 -0.234667,-0.132 -0.513334,-0.176 -0.278668,-0.05867 -0.557335,-0.05867 v -1.085336 q 0.278667,0 0.557335,-0.044 0.278667,-0.05867 0.513334,-0.176 0.249334,-0.132001 0.440001,-0.337335 0.205334,-0.205333 0.322668,-0.454667 0.117333,-0.264001 0.161333,-0.528001 0.044,-0.278668 0.044,-0.557335 v -1.408003 q 0,-0.425335 0.07333,-0.850669 0.088,-0.425334 0.278667,-0.806668 0.205334,-0.396001 0.513335,-0.689335 0.322667,-0.308001 0.704001,-0.498668 0.396001,-0.190667 0.821336,-0.264001 0.425334,-0.07333 0.865335,-0.07333 v 1.085336 q -0.278667,0 -0.557335,0.05867 -0.278667,0.044 -0.528001,0.176001 -0.234667,0.132 -0.440001,0.337334 -0.190667,0.205334 -0.308001,0.454668 -0.117333,0.249333 -0.161333,0.528001 -0.044,0.264 -0.044,0.542668 v 1.408003 q 0,0.381334 -0.05867,0.762668 -0.05867,0.366668 -0.220001,0.718669 -0.146667,0.352 -0.396001,0.645334 -0.234667,0.293334 -0.542668,0.513335 0.308001,0.22 0.542668,0.513334 0.249334,0.293334 0.396001,0.645335 0.161334,0.352001 0.220001,0.733335 0.05867,0.366668 0.05867,0.748002 v 1.408003 q 0,0.278668 0.044,0.557335 0.044,0.264 0.161333,0.513334 0.117334,0.249334 0.308001,0.454668 0.205334,0.205334 0.440001,0.337334 0.249334,0.132001 0.528001,0.176001 0.278668,0.05867 0.557335,0.05867 z m 5.705352,-6.057347 v -6.966683 h 1.20267 v 6.966683 z m 0.601335,3.930676 q -0.205334,0 -0.410668,-0.05867 -0.205334,-0.05867 -0.352001,-0.205334 -0.146667,-0.161334 -0.22,-0.352001 -0.05867,-0.205334 -0.05867,-0.425334 0,-0.205334 0.05867,-0.396001 0.07333,-0.205334 0.22,-0.352001 0.146667,-0.161333 0.352001,-0.22 0.205334,-0.05867 0.410668,-0.05867 0.205334,0 0.410667,0.05867 0.205334,0.05867 0.352001,0.22 0.146667,0.146667 0.205334,0.352001 0.05867,0.190667 0.05867,0.396001 0,0.22 -0.05867,0.425334 -0.05867,0.190667 -0.205334,0.352001 -0.146667,0.146667 -0.352001,0.205334 -0.205333,0.05867 -0.410667,0.05867 z m 6.306687,2.126671 v -1.085336 q 0.278667,0 0.557334,-0.05867 0.278668,-0.044 0.513335,-0.176001 0.249334,-0.132 0.440001,-0.337334 0.205334,-0.205334 0.322667,-0.454668 0.117334,-0.249334 0.161334,-0.513334 0.044,-0.278667 0.044,-0.557335 v -1.408003 q 0,-0.381334 0.05867,-0.748002 0.05867,-0.381334 0.205334,-0.733335 0.161333,-0.352001 0.396001,-0.645335 0.249333,-0.293334 0.557334,-0.513334 -0.308001,-0.220001 -0.557334,-0.513335 -0.234668,-0.293334 -0.396001,-0.645334 -0.146667,-0.352001 -0.205334,-0.718669 -0.05867,-0.381334 -0.05867,-0.762668 v -1.408003 q 0,-0.278668 -0.044,-0.542668 -0.044,-0.278668 -0.161334,-0.528001 -0.117333,-0.249334 -0.322667,-0.454668 -0.190667,-0.205334 -0.440001,-0.337334 -0.234667,-0.132001 -0.513335,-0.176001 -0.278667,-0.05867 -0.557334,-0.05867 v -1.085336 q 0.440001,0 0.865335,0.07333 0.425334,0.07333 0.806669,0.264001 0.396,0.190667 0.704001,0.498668 0.322668,0.293334 0.513335,0.689335 0.205333,0.381334 0.278667,0.806668 0.088,0.425334 0.088,0.850669 v 1.408003 q 0,0.278667 0.044,0.557335 0.044,0.264 0.161334,0.528001 0.117334,0.249334 0.308001,0.454667 0.205333,0.205334 0.440001,0.337335 0.249334,0.117333 0.528001,0.176 0.278667,0.044 0.557335,0.044 v 1.085336 q -0.278668,0 -0.557335,0.05867 -0.278667,0.044 -0.528001,0.176 -0.234668,0.117334 -0.440001,0.322668 -0.190667,0.205333 -0.308001,0.469334 -0.117334,0.249334 -0.161334,0.528001 -0.044,0.264001 -0.044,0.542668 v 1.408003 q 0,0.425335 -0.088,0.850669 -0.07333,0.425334 -0.278667,0.806668 -0.190667,0.396001 -0.513335,0.689335 -0.308001,0.308001 -0.704001,0.498668 -0.381335,0.190667 -0.806669,0.264001 -0.425334,0.07333 -0.865335,0.07333 z"
       id="path22"
       style="font-size:14.6667px;font-family:'Adwaita Mono';-inkscape-font-specification:'Adwaita Mono';white-space:pre;fill:#ffffff;stroke:#ffffff;stroke-width:0.845082;stroke-linecap:round;stroke-linejoin:round;filter:url(#filter98)"
       transform="matrix(0.59196231,0,0,0.59196231,-33.765199,46.3309)"
       aria-label="{!}" /></g></svg>
